<?xml version="1.0" standalone="no"?>
<!DOCTYPE svg PUBLIC "-//W3C//DTD SVG 20010904//EN"
 "http://www.w3.org/TR/2001/REC-SVG-20010904/DTD/svg10.dtd">
<svg version="1.0" xmlns="http://www.w3.org/2000/svg"
 width="700.000000pt" height="700.000000pt" viewBox="0 0 700.000000 700.000000"
 preserveAspectRatio="xMidYMid meet">
<metadata>
Created by potrace 1.11, written by Peter Selinger 2001-2013
</metadata>
<g transform="translate(0.000000,700.000000) scale(0.100000,-0.100000)"
fill="#000000" stroke="none">
<path d="M1185 5056 c-39 -17 -70 -52 -90 -98 -13 -33 -15 -198 -15 -1460 0
-1362 1 -1425 19 -1463 21 -46 54 -79 94 -94 20 -8 718 -11 2308 -11 1903 0
2285 2 2312 14 42 17 83 66 97 114 8 26 10 470 8 1469 l-3 1431 -31 39 c-17
21 -46 46 -65 55 -32 17 -163 18 -2319 18 -1882 -1 -2290 -3 -2315 -14z m1135
-1126 l0 -390 -105 0 -105 0 0 290 0 290 -65 0 c-57 0 -69 3 -96 28 -26 24
-32 36 -32 72 0 36 6 48 32 72 l31 28 170 0 170 0 0 -390z m2855 371 c50 -22
101 -79 115 -128 8 -25 10 -122 8 -283 -3 -233 -4 -248 -27 -297 l-23 -53
-390 0 c-370 0 -390 1 -377 18 32 40 38 41 265 42 122 0 236 3 253 6 18 4 45
20 62 36 l29 30 0 224 0 224 -391 0 -391 0 -29 29 c-23 23 -29 38 -29 71 0 33
6 48 29 71 l29 29 414 0 c378 0 416 -2 453 -19z m-2855 -1231 l0 -390 -105 0
-105 0 0 390 0 390 105 0 105 0 0 -390z m2953 343 c21 -45 22 -65 25 -311 3
-286 1 -300 -56 -358 -63 -63 -67 -64 -512 -64 -448 0 -438 -1 -465 64 -18 42
-8 81 27 111 l30 25 384 0 384 0 0 226 0 226 -34 34 -34 34 -238 0 c-221 0
-242 2 -271 20 -18 11 -33 24 -33 30 0 7 131 10 386 10 l385 0 22 -47z"/>
</g>
</svg>
